<mxfile host="Electron" agent="Mozilla/5.0 (Windows NT 10.0; Win64; x64) AppleWebKit/537.36 (KHTML, like Gecko) draw.io/24.7.8 Chrome/128.0.6613.36 Electron/32.0.1 Safari/537.36" version="24.7.8" pages="2">
  <diagram name="国内进口流程" id="AhHmmcegNvy3BXY6RC_S">
    <mxGraphModel dx="2901" dy="1196" grid="1" gridSize="10" guides="1" tooltips="1" connect="1" arrows="1" fold="1" page="1" pageScale="1" pageWidth="827" pageHeight="1169" math="0" shadow="0">
      <root>
        <mxCell id="0" />
        <mxCell id="1" parent="0" />
        <mxCell id="UbHPToz1K6f48N1Hcz5I-33" value="" style="edgeStyle=orthogonalEdgeStyle;rounded=0;orthogonalLoop=1;jettySize=auto;html=1;" parent="1" source="UbHPToz1K6f48N1Hcz5I-5" target="UbHPToz1K6f48N1Hcz5I-32" edge="1">
          <mxGeometry relative="1" as="geometry" />
        </mxCell>
        <mxCell id="UbHPToz1K6f48N1Hcz5I-5" value="目的港(国内)接单" style="rounded=0;whiteSpace=wrap;html=1;" parent="1" vertex="1">
          <mxGeometry x="-520" y="740" width="120" height="60" as="geometry" />
        </mxCell>
        <mxCell id="UbHPToz1K6f48N1Hcz5I-20" value="" style="edgeStyle=orthogonalEdgeStyle;rounded=0;orthogonalLoop=1;jettySize=auto;html=1;" parent="1" source="UbHPToz1K6f48N1Hcz5I-6" edge="1">
          <mxGeometry relative="1" as="geometry">
            <mxPoint x="-700" y="610" as="targetPoint" />
          </mxGeometry>
        </mxCell>
        <mxCell id="UbHPToz1K6f48N1Hcz5I-6" value="接境外业务单" style="rounded=0;whiteSpace=wrap;html=1;" parent="1" vertex="1">
          <mxGeometry x="-760" y="480" width="120" height="60" as="geometry" />
        </mxCell>
        <mxCell id="UbHPToz1K6f48N1Hcz5I-8" value="结束" style="rounded=1;whiteSpace=wrap;html=1;" parent="1" vertex="1">
          <mxGeometry x="-130" y="740" width="120" height="60" as="geometry" />
        </mxCell>
        <mxCell id="UbHPToz1K6f48N1Hcz5I-22" value="" style="edgeStyle=orthogonalEdgeStyle;rounded=0;orthogonalLoop=1;jettySize=auto;html=1;" parent="1" source="UbHPToz1K6f48N1Hcz5I-9" target="UbHPToz1K6f48N1Hcz5I-10" edge="1">
          <mxGeometry relative="1" as="geometry" />
        </mxCell>
        <mxCell id="UbHPToz1K6f48N1Hcz5I-9" value="销售下单" style="rounded=1;whiteSpace=wrap;html=1;" parent="1" vertex="1">
          <mxGeometry x="-760" y="50" width="120" height="60" as="geometry" />
        </mxCell>
        <mxCell id="UbHPToz1K6f48N1Hcz5I-11" value="" style="edgeStyle=orthogonalEdgeStyle;rounded=0;orthogonalLoop=1;jettySize=auto;html=1;" parent="1" source="6NMZB11fdvwk3czNuHpw-1" target="UbHPToz1K6f48N1Hcz5I-6" edge="1">
          <mxGeometry relative="1" as="geometry" />
        </mxCell>
        <mxCell id="UbHPToz1K6f48N1Hcz5I-14" value="" style="edgeStyle=orthogonalEdgeStyle;rounded=0;orthogonalLoop=1;jettySize=auto;html=1;" parent="1" edge="1">
          <mxGeometry relative="1" as="geometry">
            <mxPoint x="-640.0033333333332" y="234.5" as="sourcePoint" />
            <mxPoint x="-516.6700000000001" y="234.5" as="targetPoint" />
            <Array as="points">
              <mxPoint x="-596.67" y="234.5" />
              <mxPoint x="-596.67" y="234.5" />
            </Array>
          </mxGeometry>
        </mxCell>
        <mxCell id="UbHPToz1K6f48N1Hcz5I-15" value="境内(中国大陆)" style="edgeLabel;html=1;align=center;verticalAlign=middle;resizable=0;points=[];" parent="UbHPToz1K6f48N1Hcz5I-14" vertex="1" connectable="0">
          <mxGeometry x="-0.2286" relative="1" as="geometry">
            <mxPoint y="-14" as="offset" />
          </mxGeometry>
        </mxCell>
        <mxCell id="UbHPToz1K6f48N1Hcz5I-10" value="销售归属地区" style="rhombus;whiteSpace=wrap;html=1;" parent="1" vertex="1">
          <mxGeometry x="-760" y="190" width="120" height="90" as="geometry" />
        </mxCell>
        <mxCell id="UbHPToz1K6f48N1Hcz5I-17" value="" style="edgeStyle=orthogonalEdgeStyle;rounded=0;orthogonalLoop=1;jettySize=auto;html=1;entryX=1;entryY=0.5;entryDx=0;entryDy=0;exitX=0.5;exitY=1;exitDx=0;exitDy=0;" parent="1" source="UbHPToz1K6f48N1Hcz5I-16" target="UbHPToz1K6f48N1Hcz5I-26" edge="1">
          <mxGeometry relative="1" as="geometry" />
        </mxCell>
        <mxCell id="UbHPToz1K6f48N1Hcz5I-16" value="接国内业务单" style="rounded=0;whiteSpace=wrap;html=1;" parent="1" vertex="1">
          <mxGeometry x="-520" y="480" width="120" height="60" as="geometry" />
        </mxCell>
        <mxCell id="UbHPToz1K6f48N1Hcz5I-25" value="" style="edgeStyle=orthogonalEdgeStyle;rounded=0;orthogonalLoop=1;jettySize=auto;html=1;" parent="1" source="UbHPToz1K6f48N1Hcz5I-24" target="UbHPToz1K6f48N1Hcz5I-16" edge="1">
          <mxGeometry relative="1" as="geometry" />
        </mxCell>
        <mxCell id="UbHPToz1K6f48N1Hcz5I-24" value="国内系统下出口业务单" style="rounded=0;whiteSpace=wrap;html=1;" parent="1" vertex="1">
          <mxGeometry x="-520" y="200" width="120" height="60" as="geometry" />
        </mxCell>
        <mxCell id="UbHPToz1K6f48N1Hcz5I-28" value="" style="edgeStyle=orthogonalEdgeStyle;rounded=0;orthogonalLoop=1;jettySize=auto;html=1;" parent="1" source="UbHPToz1K6f48N1Hcz5I-26" target="UbHPToz1K6f48N1Hcz5I-27" edge="1">
          <mxGeometry relative="1" as="geometry" />
        </mxCell>
        <mxCell id="UbHPToz1K6f48N1Hcz5I-26" value="起运港(境外)出口流程" style="shape=process;whiteSpace=wrap;html=1;backgroundOutline=1;" parent="1" vertex="1">
          <mxGeometry x="-760" y="610" width="120" height="60" as="geometry" />
        </mxCell>
        <mxCell id="UbHPToz1K6f48N1Hcz5I-31" style="edgeStyle=orthogonalEdgeStyle;rounded=0;orthogonalLoop=1;jettySize=auto;html=1;exitX=1;exitY=0.5;exitDx=0;exitDy=0;entryX=0;entryY=0.5;entryDx=0;entryDy=0;" parent="1" source="UbHPToz1K6f48N1Hcz5I-27" target="UbHPToz1K6f48N1Hcz5I-5" edge="1">
          <mxGeometry relative="1" as="geometry" />
        </mxCell>
        <mxCell id="UbHPToz1K6f48N1Hcz5I-27" value="发送船前" style="rounded=0;whiteSpace=wrap;html=1;" parent="1" vertex="1">
          <mxGeometry x="-760" y="740" width="120" height="60" as="geometry" />
        </mxCell>
        <mxCell id="UbHPToz1K6f48N1Hcz5I-34" value="" style="edgeStyle=orthogonalEdgeStyle;rounded=0;orthogonalLoop=1;jettySize=auto;html=1;" parent="1" source="UbHPToz1K6f48N1Hcz5I-32" target="UbHPToz1K6f48N1Hcz5I-8" edge="1">
          <mxGeometry relative="1" as="geometry" />
        </mxCell>
        <mxCell id="UbHPToz1K6f48N1Hcz5I-32" value="目的港(国内)进口流程" style="shape=process;whiteSpace=wrap;html=1;backgroundOutline=1;" parent="1" vertex="1">
          <mxGeometry x="-320" y="740" width="120" height="60" as="geometry" />
        </mxCell>
        <mxCell id="UbHPToz1K6f48N1Hcz5I-35" value="1.销售归属公司地区系统下业务单 订舱指令到境外系统,由起运港归属地区接单后进口出口操作" style="shape=callout;whiteSpace=wrap;html=1;perimeter=calloutPerimeter;align=left;" parent="1" vertex="1">
          <mxGeometry x="-520" y="80" width="120" height="120" as="geometry" />
        </mxCell>
        <mxCell id="UbHPToz1K6f48N1Hcz5I-36" value="1.不同的业务类型(整柜、散货、海运、空运 )必填项、船前模板会有差异.&lt;div&gt;&lt;br/&gt;&lt;/div&gt;" style="shape=callout;whiteSpace=wrap;html=1;perimeter=calloutPerimeter;direction=west;align=left;" parent="1" vertex="1">
          <mxGeometry x="-760" y="800" width="120" height="110" as="geometry" />
        </mxCell>
        <mxCell id="UbHPToz1K6f48N1Hcz5I-40" value="" style="edgeStyle=orthogonalEdgeStyle;rounded=0;orthogonalLoop=1;jettySize=auto;html=1;" parent="1" source="UbHPToz1K6f48N1Hcz5I-37" target="UbHPToz1K6f48N1Hcz5I-39" edge="1">
          <mxGeometry relative="1" as="geometry" />
        </mxCell>
        <mxCell id="UbHPToz1K6f48N1Hcz5I-37" value="国内尾程直接进口" style="rounded=1;whiteSpace=wrap;html=1;" parent="1" vertex="1">
          <mxGeometry x="-320" y="960" width="120" height="60" as="geometry" />
        </mxCell>
        <mxCell id="UbHPToz1K6f48N1Hcz5I-41" value="" style="edgeStyle=orthogonalEdgeStyle;rounded=0;orthogonalLoop=1;jettySize=auto;html=1;" parent="1" source="UbHPToz1K6f48N1Hcz5I-39" target="UbHPToz1K6f48N1Hcz5I-32" edge="1">
          <mxGeometry relative="1" as="geometry" />
        </mxCell>
        <mxCell id="UbHPToz1K6f48N1Hcz5I-39" value="国内系统直接下进口单" style="rounded=0;whiteSpace=wrap;html=1;" parent="1" vertex="1">
          <mxGeometry x="-320" y="850" width="120" height="60" as="geometry" />
        </mxCell>
        <mxCell id="UbHPToz1K6f48N1Hcz5I-42" value="&lt;div&gt;1.不需要海外下单直接在国内下尾程进口单&lt;/div&gt;" style="shape=callout;whiteSpace=wrap;html=1;perimeter=calloutPerimeter;direction=south;align=left;" parent="1" vertex="1">
          <mxGeometry x="-200" y="930" width="110" height="120" as="geometry" />
        </mxCell>
        <mxCell id="LM5GH99rpEare9eXCokb-28" value="&lt;font style=&quot;font-size: 14px;&quot;&gt;1.国内进口单有3种途径：&lt;br&gt;a.境外销售国外系统下业务-&amp;gt;国外系统接单-&amp;gt;国外出口流程-&amp;gt;船前-&amp;gt;国内接单-&amp;gt;国内进口流程&lt;br&gt;&lt;br&gt;b.国内销售国内系统下业务单-&amp;gt;国外接国内业务单-&amp;gt;国外出口流程-&amp;gt;船前-&amp;gt;国内接单-&amp;gt;国内进口流程&lt;br&gt;&lt;br&gt;c.国内尾程直接进口下单-&amp;gt;国内进口流程&lt;/font&gt;" style="shape=document;whiteSpace=wrap;html=1;boundedLbl=1;align=left;fillColor=#1ba1e2;strokeColor=#006EAF;fontColor=#ffffff;" parent="1" vertex="1">
          <mxGeometry x="-205" y="50" width="270" height="250" as="geometry" />
        </mxCell>
        <mxCell id="31Nces1ST13gvCS18i_L-1" value="国内进口流程" style="swimlane;childLayout=stackLayout;resizeParent=1;resizeParentMax=0;startSize=20;html=1;" parent="1" vertex="1">
          <mxGeometry x="70" y="50" width="600" height="750" as="geometry" />
        </mxCell>
        <mxCell id="31Nces1ST13gvCS18i_L-2" value="国内操作系统" style="swimlane;startSize=20;html=1;" parent="31Nces1ST13gvCS18i_L-1" vertex="1">
          <mxGeometry y="20" width="300" height="730" as="geometry" />
        </mxCell>
        <mxCell id="31Nces1ST13gvCS18i_L-3" value="下出口业务单" style="rounded=0;whiteSpace=wrap;html=1;fillColor=#d5e8d4;strokeColor=#82b366;" parent="31Nces1ST13gvCS18i_L-2" vertex="1">
          <mxGeometry x="110" y="130" width="110" height="50" as="geometry" />
        </mxCell>
        <mxCell id="31Nces1ST13gvCS18i_L-4" value="" style="edgeStyle=orthogonalEdgeStyle;rounded=0;orthogonalLoop=1;jettySize=auto;html=1;" parent="31Nces1ST13gvCS18i_L-2" source="31Nces1ST13gvCS18i_L-5" target="31Nces1ST13gvCS18i_L-3" edge="1">
          <mxGeometry relative="1" as="geometry" />
        </mxCell>
        <mxCell id="31Nces1ST13gvCS18i_L-5" value="2.国内销售" style="rounded=1;whiteSpace=wrap;html=1;fillColor=#d5e8d4;strokeColor=#82b366;" parent="31Nces1ST13gvCS18i_L-2" vertex="1">
          <mxGeometry x="110" y="30" width="110" height="50" as="geometry" />
        </mxCell>
        <mxCell id="31Nces1ST13gvCS18i_L-6" style="edgeStyle=orthogonalEdgeStyle;rounded=0;orthogonalLoop=1;jettySize=auto;html=1;exitX=0.5;exitY=1;exitDx=0;exitDy=0;entryX=0.25;entryY=0;entryDx=0;entryDy=0;" parent="31Nces1ST13gvCS18i_L-2" source="31Nces1ST13gvCS18i_L-7" target="31Nces1ST13gvCS18i_L-10" edge="1">
          <mxGeometry relative="1" as="geometry" />
        </mxCell>
        <mxCell id="31Nces1ST13gvCS18i_L-7" value="3.国内尾程直接进口" style="rounded=1;whiteSpace=wrap;html=1;fillColor=#e1d5e7;strokeColor=#9673a6;" parent="31Nces1ST13gvCS18i_L-2" vertex="1">
          <mxGeometry x="10" y="440" width="110" height="50" as="geometry" />
        </mxCell>
        <mxCell id="31Nces1ST13gvCS18i_L-8" style="edgeStyle=orthogonalEdgeStyle;rounded=0;orthogonalLoop=1;jettySize=auto;html=1;exitX=0.5;exitY=1;exitDx=0;exitDy=0;entryX=0.75;entryY=0;entryDx=0;entryDy=0;" parent="31Nces1ST13gvCS18i_L-2" source="31Nces1ST13gvCS18i_L-9" target="31Nces1ST13gvCS18i_L-10" edge="1">
          <mxGeometry relative="1" as="geometry" />
        </mxCell>
        <mxCell id="31Nces1ST13gvCS18i_L-9" value="目的港(国内)接单" style="rounded=0;whiteSpace=wrap;html=1;" parent="31Nces1ST13gvCS18i_L-2" vertex="1">
          <mxGeometry x="150" y="440" width="110" height="50" as="geometry" />
        </mxCell>
        <mxCell id="31Nces1ST13gvCS18i_L-10" value="目的港(国内)进口流程" style="shape=process;whiteSpace=wrap;html=1;backgroundOutline=1;" parent="31Nces1ST13gvCS18i_L-2" vertex="1">
          <mxGeometry x="85" y="550" width="110" height="50" as="geometry" />
        </mxCell>
        <mxCell id="31Nces1ST13gvCS18i_L-11" value="结束" style="rounded=1;whiteSpace=wrap;html=1;" parent="31Nces1ST13gvCS18i_L-2" vertex="1">
          <mxGeometry x="85" y="650" width="110" height="50" as="geometry" />
        </mxCell>
        <mxCell id="31Nces1ST13gvCS18i_L-12" value="" style="edgeStyle=orthogonalEdgeStyle;rounded=0;orthogonalLoop=1;jettySize=auto;html=1;" parent="31Nces1ST13gvCS18i_L-2" source="31Nces1ST13gvCS18i_L-10" target="31Nces1ST13gvCS18i_L-11" edge="1">
          <mxGeometry relative="1" as="geometry" />
        </mxCell>
        <mxCell id="31Nces1ST13gvCS18i_L-13" value="" style="edgeStyle=orthogonalEdgeStyle;rounded=0;orthogonalLoop=1;jettySize=auto;html=1;" parent="31Nces1ST13gvCS18i_L-2" source="31Nces1ST13gvCS18i_L-10" target="31Nces1ST13gvCS18i_L-11" edge="1">
          <mxGeometry relative="1" as="geometry" />
        </mxCell>
        <mxCell id="31Nces1ST13gvCS18i_L-14" value="境外操作系统" style="swimlane;startSize=20;html=1;" parent="31Nces1ST13gvCS18i_L-1" vertex="1">
          <mxGeometry x="300" y="20" width="300" height="730" as="geometry" />
        </mxCell>
        <mxCell id="31Nces1ST13gvCS18i_L-15" value="" style="edgeStyle=orthogonalEdgeStyle;rounded=0;orthogonalLoop=1;jettySize=auto;html=1;" parent="31Nces1ST13gvCS18i_L-14" source="31Nces1ST13gvCS18i_L-16" target="31Nces1ST13gvCS18i_L-18" edge="1">
          <mxGeometry relative="1" as="geometry" />
        </mxCell>
        <mxCell id="31Nces1ST13gvCS18i_L-16" value="1.境外销售" style="rounded=1;whiteSpace=wrap;html=1;fillColor=#ffe6cc;strokeColor=#d79b00;" parent="31Nces1ST13gvCS18i_L-14" vertex="1">
          <mxGeometry x="90" y="30" width="110" height="50" as="geometry" />
        </mxCell>
        <mxCell id="31Nces1ST13gvCS18i_L-17" style="edgeStyle=orthogonalEdgeStyle;rounded=0;orthogonalLoop=1;jettySize=auto;html=1;entryX=0.5;entryY=0;entryDx=0;entryDy=0;exitX=1;exitY=0.5;exitDx=0;exitDy=0;" parent="31Nces1ST13gvCS18i_L-14" source="31Nces1ST13gvCS18i_L-18" target="31Nces1ST13gvCS18i_L-24" edge="1">
          <mxGeometry relative="1" as="geometry" />
        </mxCell>
        <mxCell id="31Nces1ST13gvCS18i_L-18" value="下出口业务单" style="rounded=0;whiteSpace=wrap;html=1;fillColor=#ffe6cc;strokeColor=#d79b00;" parent="31Nces1ST13gvCS18i_L-14" vertex="1">
          <mxGeometry x="90" y="130" width="110" height="50" as="geometry" />
        </mxCell>
        <mxCell id="31Nces1ST13gvCS18i_L-19" style="edgeStyle=orthogonalEdgeStyle;rounded=0;orthogonalLoop=1;jettySize=auto;html=1;exitX=0.5;exitY=1;exitDx=0;exitDy=0;entryX=0.25;entryY=0;entryDx=0;entryDy=0;" parent="31Nces1ST13gvCS18i_L-14" source="31Nces1ST13gvCS18i_L-20" target="31Nces1ST13gvCS18i_L-22" edge="1">
          <mxGeometry relative="1" as="geometry" />
        </mxCell>
        <mxCell id="31Nces1ST13gvCS18i_L-20" value="接国内业务单" style="rounded=0;whiteSpace=wrap;html=1;fillColor=#d5e8d4;strokeColor=#82b366;" parent="31Nces1ST13gvCS18i_L-14" vertex="1">
          <mxGeometry x="20" y="240" width="110" height="50" as="geometry" />
        </mxCell>
        <mxCell id="31Nces1ST13gvCS18i_L-21" value="" style="edgeStyle=orthogonalEdgeStyle;rounded=0;orthogonalLoop=1;jettySize=auto;html=1;" parent="31Nces1ST13gvCS18i_L-14" source="31Nces1ST13gvCS18i_L-22" target="31Nces1ST13gvCS18i_L-23" edge="1">
          <mxGeometry relative="1" as="geometry" />
        </mxCell>
        <mxCell id="31Nces1ST13gvCS18i_L-22" value="出口流程&lt;br&gt;(订舱、取货、报关等)" style="shape=process;whiteSpace=wrap;html=1;backgroundOutline=1;" parent="31Nces1ST13gvCS18i_L-14" vertex="1">
          <mxGeometry x="95" y="340" width="110" height="50" as="geometry" />
        </mxCell>
        <mxCell id="31Nces1ST13gvCS18i_L-23" value="发送船前" style="rounded=0;whiteSpace=wrap;html=1;" parent="31Nces1ST13gvCS18i_L-14" vertex="1">
          <mxGeometry x="95" y="440" width="110" height="50" as="geometry" />
        </mxCell>
        <mxCell id="31Nces1ST13gvCS18i_L-24" value="接境外业务单" style="rounded=0;whiteSpace=wrap;html=1;fillColor=#ffe6cc;strokeColor=#d79b00;" parent="31Nces1ST13gvCS18i_L-14" vertex="1">
          <mxGeometry x="170" y="240" width="110" height="50" as="geometry" />
        </mxCell>
        <mxCell id="31Nces1ST13gvCS18i_L-25" style="edgeStyle=orthogonalEdgeStyle;rounded=0;orthogonalLoop=1;jettySize=auto;html=1;exitX=0.5;exitY=1;exitDx=0;exitDy=0;entryX=0.673;entryY=-0.06;entryDx=0;entryDy=0;entryPerimeter=0;" parent="31Nces1ST13gvCS18i_L-14" source="31Nces1ST13gvCS18i_L-24" target="31Nces1ST13gvCS18i_L-22" edge="1">
          <mxGeometry relative="1" as="geometry" />
        </mxCell>
        <mxCell id="31Nces1ST13gvCS18i_L-26" style="edgeStyle=orthogonalEdgeStyle;rounded=0;orthogonalLoop=1;jettySize=auto;html=1;entryX=0;entryY=0.5;entryDx=0;entryDy=0;exitX=0.5;exitY=1;exitDx=0;exitDy=0;" parent="31Nces1ST13gvCS18i_L-1" source="31Nces1ST13gvCS18i_L-3" target="31Nces1ST13gvCS18i_L-20" edge="1">
          <mxGeometry relative="1" as="geometry" />
        </mxCell>
        <mxCell id="31Nces1ST13gvCS18i_L-27" style="edgeStyle=orthogonalEdgeStyle;rounded=0;orthogonalLoop=1;jettySize=auto;html=1;exitX=0;exitY=0.5;exitDx=0;exitDy=0;entryX=1;entryY=0.5;entryDx=0;entryDy=0;" parent="31Nces1ST13gvCS18i_L-1" source="31Nces1ST13gvCS18i_L-23" target="31Nces1ST13gvCS18i_L-9" edge="1">
          <mxGeometry relative="1" as="geometry" />
        </mxCell>
        <mxCell id="31Nces1ST13gvCS18i_L-28" value="出口" style="edgeLabel;html=1;align=center;verticalAlign=middle;resizable=0;points=[];" parent="31Nces1ST13gvCS18i_L-27" vertex="1" connectable="0">
          <mxGeometry x="-0.2457" y="2" relative="1" as="geometry">
            <mxPoint as="offset" />
          </mxGeometry>
        </mxCell>
        <mxCell id="6NMZB11fdvwk3czNuHpw-2" value="" style="edgeStyle=orthogonalEdgeStyle;rounded=0;orthogonalLoop=1;jettySize=auto;html=1;" parent="1" source="UbHPToz1K6f48N1Hcz5I-10" target="6NMZB11fdvwk3czNuHpw-1" edge="1">
          <mxGeometry relative="1" as="geometry">
            <mxPoint x="-700" y="280" as="sourcePoint" />
            <mxPoint x="-700" y="480" as="targetPoint" />
          </mxGeometry>
        </mxCell>
        <mxCell id="6NMZB11fdvwk3czNuHpw-5" value="境外" style="edgeLabel;html=1;align=center;verticalAlign=middle;resizable=0;points=[];" parent="6NMZB11fdvwk3czNuHpw-2" vertex="1" connectable="0">
          <mxGeometry x="-0.4333" y="3" relative="1" as="geometry">
            <mxPoint as="offset" />
          </mxGeometry>
        </mxCell>
        <mxCell id="6NMZB11fdvwk3czNuHpw-1" value="国外系统下出口业务单" style="rounded=0;whiteSpace=wrap;html=1;" parent="1" vertex="1">
          <mxGeometry x="-760" y="340" width="120" height="60" as="geometry" />
        </mxCell>
      </root>
    </mxGraphModel>
  </diagram>
  <diagram id="gbM9G5uEai5HPNmQ7K14" name="国内出口流程">
    <mxGraphModel dx="2901" dy="1196" grid="1" gridSize="10" guides="1" tooltips="1" connect="1" arrows="1" fold="1" page="1" pageScale="1" pageWidth="827" pageHeight="1169" math="0" shadow="0">
      <root>
        <mxCell id="0" />
        <mxCell id="1" parent="0" />
        <mxCell id="8nzVIna3UTIGo0UW_NBT-1" value="国内出口流程" style="swimlane;childLayout=stackLayout;resizeParent=1;resizeParentMax=0;startSize=20;html=1;" parent="1" vertex="1">
          <mxGeometry x="70" y="50" width="600" height="780" as="geometry" />
        </mxCell>
        <mxCell id="8nzVIna3UTIGo0UW_NBT-2" value="国内操作系统" style="swimlane;startSize=20;html=1;" parent="8nzVIna3UTIGo0UW_NBT-1" vertex="1">
          <mxGeometry y="20" width="300" height="760" as="geometry" />
        </mxCell>
        <mxCell id="8nzVIna3UTIGo0UW_NBT-3" value="下出口业务单" style="rounded=0;whiteSpace=wrap;html=1;fillColor=#d5e8d4;strokeColor=#82b366;" parent="8nzVIna3UTIGo0UW_NBT-2" vertex="1">
          <mxGeometry x="110" y="130" width="110" height="50" as="geometry" />
        </mxCell>
        <mxCell id="8nzVIna3UTIGo0UW_NBT-4" value="" style="edgeStyle=orthogonalEdgeStyle;rounded=0;orthogonalLoop=1;jettySize=auto;html=1;" parent="8nzVIna3UTIGo0UW_NBT-2" source="8nzVIna3UTIGo0UW_NBT-5" target="8nzVIna3UTIGo0UW_NBT-3" edge="1">
          <mxGeometry relative="1" as="geometry" />
        </mxCell>
        <mxCell id="8nzVIna3UTIGo0UW_NBT-5" value="2.国内销售" style="rounded=1;whiteSpace=wrap;html=1;fillColor=#d5e8d4;strokeColor=#82b366;" parent="8nzVIna3UTIGo0UW_NBT-2" vertex="1">
          <mxGeometry x="110" y="30" width="110" height="50" as="geometry" />
        </mxCell>
        <mxCell id="8nzVIna3UTIGo0UW_NBT-22" value="接国内业务单" style="rounded=0;whiteSpace=wrap;html=1;fillColor=#d5e8d4;strokeColor=#82b366;" parent="8nzVIna3UTIGo0UW_NBT-2" vertex="1">
          <mxGeometry x="30" y="270" width="110" height="50" as="geometry" />
        </mxCell>
        <mxCell id="XmTTx2g_Ih_EesOWZDWX-1" style="edgeStyle=orthogonalEdgeStyle;rounded=0;orthogonalLoop=1;jettySize=auto;html=1;entryX=0.5;entryY=0;entryDx=0;entryDy=0;exitX=0;exitY=0.5;exitDx=0;exitDy=0;" parent="8nzVIna3UTIGo0UW_NBT-2" source="8nzVIna3UTIGo0UW_NBT-3" target="8nzVIna3UTIGo0UW_NBT-22" edge="1">
          <mxGeometry relative="1" as="geometry" />
        </mxCell>
        <mxCell id="8nzVIna3UTIGo0UW_NBT-19" value="出口流程&lt;br&gt;(订舱、取货、报关等)" style="shape=process;whiteSpace=wrap;html=1;backgroundOutline=1;" parent="8nzVIna3UTIGo0UW_NBT-2" vertex="1">
          <mxGeometry x="80" y="370" width="110" height="50" as="geometry" />
        </mxCell>
        <mxCell id="XmTTx2g_Ih_EesOWZDWX-4" style="edgeStyle=orthogonalEdgeStyle;rounded=0;orthogonalLoop=1;jettySize=auto;html=1;exitX=0.5;exitY=1;exitDx=0;exitDy=0;entryX=0.25;entryY=0;entryDx=0;entryDy=0;" parent="8nzVIna3UTIGo0UW_NBT-2" source="8nzVIna3UTIGo0UW_NBT-22" target="8nzVIna3UTIGo0UW_NBT-19" edge="1">
          <mxGeometry relative="1" as="geometry" />
        </mxCell>
        <mxCell id="XmTTx2g_Ih_EesOWZDWX-2" value="接境外业务单" style="rounded=0;whiteSpace=wrap;html=1;fillColor=#ffe6cc;strokeColor=#d79b00;" parent="8nzVIna3UTIGo0UW_NBT-2" vertex="1">
          <mxGeometry x="170" y="270" width="110" height="50" as="geometry" />
        </mxCell>
        <mxCell id="XmTTx2g_Ih_EesOWZDWX-5" style="edgeStyle=orthogonalEdgeStyle;rounded=0;orthogonalLoop=1;jettySize=auto;html=1;exitX=0.5;exitY=1;exitDx=0;exitDy=0;entryX=0.673;entryY=-0.06;entryDx=0;entryDy=0;entryPerimeter=0;" parent="8nzVIna3UTIGo0UW_NBT-2" source="XmTTx2g_Ih_EesOWZDWX-2" target="8nzVIna3UTIGo0UW_NBT-19" edge="1">
          <mxGeometry relative="1" as="geometry" />
        </mxCell>
        <mxCell id="8nzVIna3UTIGo0UW_NBT-20" value="发送船前" style="rounded=0;whiteSpace=wrap;html=1;" parent="8nzVIna3UTIGo0UW_NBT-2" vertex="1">
          <mxGeometry x="80" y="470" width="110" height="50" as="geometry" />
        </mxCell>
        <mxCell id="8nzVIna3UTIGo0UW_NBT-18" value="" style="edgeStyle=orthogonalEdgeStyle;rounded=0;orthogonalLoop=1;jettySize=auto;html=1;" parent="8nzVIna3UTIGo0UW_NBT-2" source="8nzVIna3UTIGo0UW_NBT-19" target="8nzVIna3UTIGo0UW_NBT-20" edge="1">
          <mxGeometry relative="1" as="geometry" />
        </mxCell>
        <mxCell id="XmTTx2g_Ih_EesOWZDWX-3" style="edgeStyle=orthogonalEdgeStyle;rounded=0;orthogonalLoop=1;jettySize=auto;html=1;entryX=0.5;entryY=0;entryDx=0;entryDy=0;exitX=0.5;exitY=1;exitDx=0;exitDy=0;" parent="8nzVIna3UTIGo0UW_NBT-1" source="8nzVIna3UTIGo0UW_NBT-17" target="XmTTx2g_Ih_EesOWZDWX-2" edge="1">
          <mxGeometry relative="1" as="geometry" />
        </mxCell>
        <mxCell id="C_8_ARxVG3xDKjCfC6IR-1" style="edgeStyle=orthogonalEdgeStyle;rounded=0;orthogonalLoop=1;jettySize=auto;html=1;entryX=0;entryY=0.5;entryDx=0;entryDy=0;" edge="1" parent="8nzVIna3UTIGo0UW_NBT-1" source="8nzVIna3UTIGo0UW_NBT-20" target="8nzVIna3UTIGo0UW_NBT-7">
          <mxGeometry relative="1" as="geometry" />
        </mxCell>
        <mxCell id="8nzVIna3UTIGo0UW_NBT-13" value="境外操作系统" style="swimlane;startSize=20;html=1;" parent="8nzVIna3UTIGo0UW_NBT-1" vertex="1">
          <mxGeometry x="300" y="20" width="300" height="760" as="geometry" />
        </mxCell>
        <mxCell id="8nzVIna3UTIGo0UW_NBT-14" value="" style="edgeStyle=orthogonalEdgeStyle;rounded=0;orthogonalLoop=1;jettySize=auto;html=1;" parent="8nzVIna3UTIGo0UW_NBT-13" source="8nzVIna3UTIGo0UW_NBT-15" target="8nzVIna3UTIGo0UW_NBT-17" edge="1">
          <mxGeometry relative="1" as="geometry" />
        </mxCell>
        <mxCell id="8nzVIna3UTIGo0UW_NBT-15" value="1.境外销售" style="rounded=1;whiteSpace=wrap;html=1;fillColor=#ffe6cc;strokeColor=#d79b00;" parent="8nzVIna3UTIGo0UW_NBT-13" vertex="1">
          <mxGeometry x="90" y="30" width="110" height="50" as="geometry" />
        </mxCell>
        <mxCell id="8nzVIna3UTIGo0UW_NBT-17" value="下出口业务单" style="rounded=0;whiteSpace=wrap;html=1;fillColor=#ffe6cc;strokeColor=#d79b00;" parent="8nzVIna3UTIGo0UW_NBT-13" vertex="1">
          <mxGeometry x="90" y="130" width="110" height="50" as="geometry" />
        </mxCell>
        <mxCell id="C_8_ARxVG3xDKjCfC6IR-2" value="" style="edgeStyle=orthogonalEdgeStyle;rounded=0;orthogonalLoop=1;jettySize=auto;html=1;" edge="1" parent="8nzVIna3UTIGo0UW_NBT-13" source="8nzVIna3UTIGo0UW_NBT-7" target="8nzVIna3UTIGo0UW_NBT-9">
          <mxGeometry relative="1" as="geometry" />
        </mxCell>
        <mxCell id="8nzVIna3UTIGo0UW_NBT-7" value="目的港接单" style="rounded=0;whiteSpace=wrap;html=1;" parent="8nzVIna3UTIGo0UW_NBT-13" vertex="1">
          <mxGeometry x="60" y="470" width="110" height="50" as="geometry" />
        </mxCell>
        <mxCell id="C_8_ARxVG3xDKjCfC6IR-3" value="" style="edgeStyle=orthogonalEdgeStyle;rounded=0;orthogonalLoop=1;jettySize=auto;html=1;" edge="1" parent="8nzVIna3UTIGo0UW_NBT-13" source="8nzVIna3UTIGo0UW_NBT-9" target="8nzVIna3UTIGo0UW_NBT-10">
          <mxGeometry relative="1" as="geometry" />
        </mxCell>
        <mxCell id="8nzVIna3UTIGo0UW_NBT-9" value="目的港进口流程" style="shape=process;whiteSpace=wrap;html=1;backgroundOutline=1;" parent="8nzVIna3UTIGo0UW_NBT-13" vertex="1">
          <mxGeometry x="60" y="570" width="110" height="50" as="geometry" />
        </mxCell>
        <mxCell id="8nzVIna3UTIGo0UW_NBT-10" value="结束" style="rounded=1;whiteSpace=wrap;html=1;" parent="8nzVIna3UTIGo0UW_NBT-13" vertex="1">
          <mxGeometry x="60" y="670" width="110" height="50" as="geometry" />
        </mxCell>
        <mxCell id="8nzVIna3UTIGo0UW_NBT-26" value="" style="edgeStyle=orthogonalEdgeStyle;rounded=0;orthogonalLoop=1;jettySize=auto;html=1;" parent="1" source="8nzVIna3UTIGo0UW_NBT-27" target="8nzVIna3UTIGo0UW_NBT-47" edge="1">
          <mxGeometry relative="1" as="geometry" />
        </mxCell>
        <mxCell id="8nzVIna3UTIGo0UW_NBT-27" value="目的港接单" style="rounded=0;whiteSpace=wrap;html=1;" parent="1" vertex="1">
          <mxGeometry x="-520" y="710" width="120" height="60" as="geometry" />
        </mxCell>
        <mxCell id="8nzVIna3UTIGo0UW_NBT-28" value="" style="edgeStyle=orthogonalEdgeStyle;rounded=0;orthogonalLoop=1;jettySize=auto;html=1;" parent="1" source="8nzVIna3UTIGo0UW_NBT-29" edge="1">
          <mxGeometry relative="1" as="geometry">
            <mxPoint x="-700" y="490" as="targetPoint" />
          </mxGeometry>
        </mxCell>
        <mxCell id="fPzVaJ6vG77droGWoOxh-1" value="" style="edgeStyle=orthogonalEdgeStyle;rounded=0;orthogonalLoop=1;jettySize=auto;html=1;" parent="1" source="8nzVIna3UTIGo0UW_NBT-29" target="8nzVIna3UTIGo0UW_NBT-37" edge="1">
          <mxGeometry relative="1" as="geometry" />
        </mxCell>
        <mxCell id="8nzVIna3UTIGo0UW_NBT-29" value="国内系统下出口业务单" style="rounded=0;whiteSpace=wrap;html=1;" parent="1" vertex="1">
          <mxGeometry x="-760" y="360" width="120" height="60" as="geometry" />
        </mxCell>
        <mxCell id="8nzVIna3UTIGo0UW_NBT-30" value="结束" style="rounded=1;whiteSpace=wrap;html=1;" parent="1" vertex="1">
          <mxGeometry x="-130" y="710" width="120" height="60" as="geometry" />
        </mxCell>
        <mxCell id="8nzVIna3UTIGo0UW_NBT-31" value="" style="edgeStyle=orthogonalEdgeStyle;rounded=0;orthogonalLoop=1;jettySize=auto;html=1;" parent="1" source="8nzVIna3UTIGo0UW_NBT-32" target="8nzVIna3UTIGo0UW_NBT-37" edge="1">
          <mxGeometry relative="1" as="geometry" />
        </mxCell>
        <mxCell id="8nzVIna3UTIGo0UW_NBT-32" value="销售下单" style="rounded=1;whiteSpace=wrap;html=1;" parent="1" vertex="1">
          <mxGeometry x="-760" y="50" width="120" height="60" as="geometry" />
        </mxCell>
        <mxCell id="8nzVIna3UTIGo0UW_NBT-33" value="" style="edgeStyle=orthogonalEdgeStyle;rounded=0;orthogonalLoop=1;jettySize=auto;html=1;" parent="1" source="8nzVIna3UTIGo0UW_NBT-37" target="8nzVIna3UTIGo0UW_NBT-29" edge="1">
          <mxGeometry relative="1" as="geometry" />
        </mxCell>
        <mxCell id="AeuSHUGTNt5v4EaAvUo8-1" value="国内" style="edgeLabel;html=1;align=center;verticalAlign=middle;resizable=0;points=[];" parent="8nzVIna3UTIGo0UW_NBT-33" vertex="1" connectable="0">
          <mxGeometry x="-0.025" relative="1" as="geometry">
            <mxPoint as="offset" />
          </mxGeometry>
        </mxCell>
        <mxCell id="8nzVIna3UTIGo0UW_NBT-35" value="" style="edgeStyle=orthogonalEdgeStyle;rounded=0;orthogonalLoop=1;jettySize=auto;html=1;" parent="1" edge="1">
          <mxGeometry relative="1" as="geometry">
            <mxPoint x="-640.0033333333332" y="234.5" as="sourcePoint" />
            <mxPoint x="-516.6700000000001" y="234.5" as="targetPoint" />
            <Array as="points">
              <mxPoint x="-596.67" y="234.5" />
              <mxPoint x="-596.67" y="234.5" />
            </Array>
          </mxGeometry>
        </mxCell>
        <mxCell id="8nzVIna3UTIGo0UW_NBT-36" value="境外" style="edgeLabel;html=1;align=center;verticalAlign=middle;resizable=0;points=[];" parent="8nzVIna3UTIGo0UW_NBT-35" vertex="1" connectable="0">
          <mxGeometry x="-0.2286" relative="1" as="geometry">
            <mxPoint y="-14" as="offset" />
          </mxGeometry>
        </mxCell>
        <mxCell id="8nzVIna3UTIGo0UW_NBT-37" value="销售归属地区" style="rhombus;whiteSpace=wrap;html=1;" parent="1" vertex="1">
          <mxGeometry x="-760" y="190" width="120" height="90" as="geometry" />
        </mxCell>
        <mxCell id="8nzVIna3UTIGo0UW_NBT-38" value="" style="edgeStyle=orthogonalEdgeStyle;rounded=0;orthogonalLoop=1;jettySize=auto;html=1;entryX=1;entryY=0.5;entryDx=0;entryDy=0;exitX=0.5;exitY=1;exitDx=0;exitDy=0;" parent="1" source="8nzVIna3UTIGo0UW_NBT-39" target="8nzVIna3UTIGo0UW_NBT-43" edge="1">
          <mxGeometry relative="1" as="geometry" />
        </mxCell>
        <mxCell id="8nzVIna3UTIGo0UW_NBT-39" value="接境外系统业务单" style="rounded=0;whiteSpace=wrap;html=1;" parent="1" vertex="1">
          <mxGeometry x="-520" y="480" width="120" height="60" as="geometry" />
        </mxCell>
        <mxCell id="8nzVIna3UTIGo0UW_NBT-40" value="" style="edgeStyle=orthogonalEdgeStyle;rounded=0;orthogonalLoop=1;jettySize=auto;html=1;" parent="1" source="8nzVIna3UTIGo0UW_NBT-41" target="8nzVIna3UTIGo0UW_NBT-39" edge="1">
          <mxGeometry relative="1" as="geometry" />
        </mxCell>
        <mxCell id="8nzVIna3UTIGo0UW_NBT-41" value="国外系统下出口业务单" style="rounded=0;whiteSpace=wrap;html=1;" parent="1" vertex="1">
          <mxGeometry x="-520" y="200" width="120" height="60" as="geometry" />
        </mxCell>
        <mxCell id="8nzVIna3UTIGo0UW_NBT-42" value="" style="edgeStyle=orthogonalEdgeStyle;rounded=0;orthogonalLoop=1;jettySize=auto;html=1;" parent="1" source="8nzVIna3UTIGo0UW_NBT-43" target="8nzVIna3UTIGo0UW_NBT-45" edge="1">
          <mxGeometry relative="1" as="geometry" />
        </mxCell>
        <mxCell id="8nzVIna3UTIGo0UW_NBT-43" value="起运港(境外)出口流程" style="shape=process;whiteSpace=wrap;html=1;backgroundOutline=1;" parent="1" vertex="1">
          <mxGeometry x="-760" y="600" width="120" height="60" as="geometry" />
        </mxCell>
        <mxCell id="8nzVIna3UTIGo0UW_NBT-44" style="edgeStyle=orthogonalEdgeStyle;rounded=0;orthogonalLoop=1;jettySize=auto;html=1;exitX=1;exitY=0.5;exitDx=0;exitDy=0;entryX=0;entryY=0.5;entryDx=0;entryDy=0;" parent="1" source="8nzVIna3UTIGo0UW_NBT-45" target="8nzVIna3UTIGo0UW_NBT-27" edge="1">
          <mxGeometry relative="1" as="geometry" />
        </mxCell>
        <mxCell id="8nzVIna3UTIGo0UW_NBT-45" value="发送船前" style="rounded=0;whiteSpace=wrap;html=1;" parent="1" vertex="1">
          <mxGeometry x="-760" y="710" width="120" height="60" as="geometry" />
        </mxCell>
        <mxCell id="8nzVIna3UTIGo0UW_NBT-46" value="" style="edgeStyle=orthogonalEdgeStyle;rounded=0;orthogonalLoop=1;jettySize=auto;html=1;" parent="1" source="8nzVIna3UTIGo0UW_NBT-47" target="8nzVIna3UTIGo0UW_NBT-30" edge="1">
          <mxGeometry relative="1" as="geometry" />
        </mxCell>
        <mxCell id="8nzVIna3UTIGo0UW_NBT-47" value="目的港进口流程" style="shape=process;whiteSpace=wrap;html=1;backgroundOutline=1;" parent="1" vertex="1">
          <mxGeometry x="-320" y="710" width="120" height="60" as="geometry" />
        </mxCell>
        <mxCell id="8nzVIna3UTIGo0UW_NBT-48" value="1.销售归属公司地区系统下业务单" style="shape=callout;whiteSpace=wrap;html=1;perimeter=calloutPerimeter;align=left;" parent="1" vertex="1">
          <mxGeometry x="-520" y="80" width="120" height="120" as="geometry" />
        </mxCell>
        <mxCell id="8nzVIna3UTIGo0UW_NBT-49" value="1.不同的业务类型(整柜、散货、海运、空运 )必填项、船前模板会有差异.&lt;div&gt;&lt;br/&gt;&lt;/div&gt;" style="shape=callout;whiteSpace=wrap;html=1;perimeter=calloutPerimeter;direction=west;align=left;" parent="1" vertex="1">
          <mxGeometry x="-760" y="770" width="120" height="110" as="geometry" />
        </mxCell>
        <mxCell id="8nzVIna3UTIGo0UW_NBT-55" value="&lt;font style=&quot;font-size: 14px;&quot;&gt;1.国内出口单有2种途径：&lt;br&gt;a.国内销售国内系统下业务单-&amp;gt;国内出口流程-&amp;gt;船前-&amp;gt;国外接单-&amp;gt;国外进口流程&lt;/font&gt;&lt;div&gt;&lt;font style=&quot;font-size: 14px;&quot;&gt;&lt;br&gt;&lt;/font&gt;&lt;/div&gt;&lt;div&gt;&lt;font style=&quot;font-size: 14px;&quot;&gt;b.境外销售国外系统下业务单-&amp;gt;国内接单-&amp;gt;国内出口流程-&amp;gt;船前-&amp;gt;国外接单-&amp;gt;国外进口流程&lt;br&gt;&lt;br&gt;&lt;/font&gt;&lt;/div&gt;" style="shape=document;whiteSpace=wrap;html=1;boundedLbl=1;align=left;fillColor=#1ba1e2;strokeColor=#006EAF;fontColor=#ffffff;" parent="1" vertex="1">
          <mxGeometry x="-205" y="50" width="270" height="200" as="geometry" />
        </mxCell>
        <mxCell id="UPK9mbEhndq6-n6icwgv-1" value="" style="edgeStyle=orthogonalEdgeStyle;rounded=0;orthogonalLoop=1;jettySize=auto;html=1;" parent="1" source="LIFENVwQtW1Og-lY6Zxv-1" target="8nzVIna3UTIGo0UW_NBT-43" edge="1">
          <mxGeometry relative="1" as="geometry" />
        </mxCell>
        <mxCell id="LIFENVwQtW1Og-lY6Zxv-1" value="接国内系统业务单" style="rounded=0;whiteSpace=wrap;html=1;" parent="1" vertex="1">
          <mxGeometry x="-760" y="480" width="120" height="60" as="geometry" />
        </mxCell>
      </root>
    </mxGraphModel>
  </diagram>
</mxfile>
